<?xml version="1.0" ?><svg viewBox="0 0 32 32" xmlns="http://www.w3.org/2000/svg"><title/><g id="random"><path d="M8.64,27H3c-1,0-3-.84-3-4s2-4,3-4H6.83l13-14H23V4.56A1.56,1.56,0,0,1,24.56,3h.28a2.09,2.09,0,0,1,1.24.58l5.48,3.61a1.86,1.86,0,0,1,0,2.62L26.11,14.4a2.16,2.16,0,0,1-1.27.6h-.28A1.56,1.56,0,0,1,23,13.44V13H21.64ZM3,21c-.14,0-1,.16-1,2s.86,2,1,2H7.76l13-14H25v1.72l5-4.19L25,5.26V7H20.71l-13,14ZM24.58,5Z"/><path d="M24.84,29h-.28A1.56,1.56,0,0,1,23,27.44V27H19.83l-7-7.5,4.63-5L21.64,19H23v-.44A1.56,1.56,0,0,1,24.56,17h.28a2.22,2.22,0,0,1,1.34.67l5.38,4.52a1.86,1.86,0,0,1,0,2.62l-.16.13-5.32,3.48A2.09,2.09,0,0,1,24.84,29Zm-4.13-4H25v1.74l5-3.27-5-4.19V21H20.76l-3.27-3.53-1.89,2Z"/><path d="M11,17.47,6.83,13H3c-1,0-3-.84-3-4s2-4,3-4H8.64l7,7.5ZM7.27,11h.44L11,14.53l1.89-2L7.76,7H3c-.14,0-1,.16-1,2s.86,2,1,2Z"/></g></svg>